<svg width="110" height="70" viewBox="0 0 110 70" fill="none" xmlns="http://www.w3.org/2000/svg">
<text x="5" y = "5" fill="url(#paint2_linear)" font-size="7px">g(y)</text>
<text x="104" y = "51" fill="url(#paint2_linear)" font-size="7px">y</text>
<path d="M 10,10
        L 10,50
        L 100,50
        M 10,50
        Q  40,0 90,70
        "  stroke="url(#paint3_linear)" stroke-width="1.5" stroke-linecap="round"/>
<path d ="M 17 53
          L 20 50
          L 17 47
          M 27 53
          L 30 50
          L 27 47
          M 37 53
          L 40 50
          L 37 47
          M 47 53
          L 50 50
          L 47 47
          M 57 53
          L 60 50
          L 57 47
          M 67 53
          L 70 50
          L 67 47
          M 83 47
          L 80 50
          L 83 53
          M 93 47
          L 90 50
          L 93 53" stroke="url(#paint3_linear)" stroke-width="1" stroke-linecap="round"/>
<text x="30" y = "20" fill="url(#paint2_linear)" font-size="7px">g(y) &gt; 0</text>
<text x="75" y = "30" fill="url(#paint2_linear)" font-size="7px">g(y) &lt; 0</text>
<defs>

<linearGradient id="paint0_linear" x1="3.26667" y1="1" x2="37.8" y2="39.1334" gradientUnits="userSpaceOnUse">
<stop offset="0.259336" stop-color="#4bff33"/>
<stop offset="1" stop-color="#15B300"/>
</linearGradient>
<linearGradient id="paint1_linear" x1="29.602" y1="29.21" x2="36.1781" y2="36.4484" gradientUnits="userSpaceOnUse">
<stop offset="0.259336" stop-color="#4bff33"/>
<stop offset="1" stop-color="#15B300"/>
</linearGradient>
<linearGradient id="paint2_linear" x1="29.602" y1="29.21" x2="36.1781" y2="36.4484" gradientUnits="userSpaceOnUse">
<stop offset="0.259336" stop-color="#4bff33"/>
<stop offset="1" stop-color="#15B300"/>
</linearGradient>
<linearGradient id="paint3_linear" x1="3.26667" y1="1" x2="37.8" y2="39.1334" gradientUnits="userSpaceOnUse">
<stop offset="0.259336" stop-color="#4bff33"/>
<stop offset="1" stop-color="#15B300"/>
</linearGradient>
<linearGradient id="paint4_linear" x1="3.26667" y1="1" x2="37.8" y2="39.1334" gradientUnits="userSpaceOnUse">
<stop offset="0.259336" stop-color="#4bff33"/>
<stop offset="1" stop-color="#15B300"/>
</linearGradient>
</defs>
</svg>
