<svg width="42" height="42" viewBox="0 0 42 42" fill="none" xmlns="http://www.w3.org/2000/svg">
<ellipse cx="21" cy = "21" rx="5" ry="3" transform="rotate(-30 21 21)" fill = "url(#paint1_linear)"/>
<path d="M 14 10
         q 5,2 7,-3  
         t 12,6
         t 0,12
         t -6,8
         t -8,2
         t -8,-12
         t -4,-5
         t -4, -4
         T 14,10z
         " fill = "url(#paint0_linear)" fill-opacity= "0.15" stroke="url(#paint3_linear)" stroke-width="1.5" stroke-cap="rounded"/>
<path d="M 14 10 q -3,-1 -2,-4
        M 21 6.5 q -2,0 -2,-2
        M 29 8.8 q 0,-2, 2,-2
        M 35 15 q 1 -3 2,-3
        M 38 20 q 1 0 2 -1
        M 35 24.7 q 1 0 2 2
        M 29 26   q -1 02 2 2
        M 28 35 q 1 -1 2 0
        M 19 35 q -2 0 -2 2
        M 11 30 q -2 0 -2 1 
        M 10.4 24 q 0 -1 -2 0
        M 6 18.3 q -0.5 0.5 0 2
        M 4 9.5 q 0 1 1 2 "  stroke="url(#paint3_linear)" stroke-width="1.5" stroke-linecap="round"/>

<defs>
<linearGradient id="paint0_linear" x1="3.26667" y1="1" x2="37.8" y2="39.1334" gradientUnits="userSpaceOnUse">
<stop offset="0.259336" stop-color="#4bff33"/>
<stop offset="1" stop-color="#15B300"/>
</linearGradient>
<linearGradient id="paint1_linear" x1="29.602" y1="29.21" x2="36.1781" y2="36.4484" gradientUnits="userSpaceOnUse">
<stop offset="0.259336" stop-color="#4bff33"/>
<stop offset="1" stop-color="#15B300"/>
</linearGradient>
<linearGradient id="paint2_linear" x1="29.602" y1="29.21" x2="36.1781" y2="36.4484" gradientUnits="userSpaceOnUse">
<stop offset="0.259336" stop-color="#4bff33"/>
<stop offset="1" stop-color="#15B300"/>
</linearGradient>
<linearGradient id="paint3_linear" x1="3.26667" y1="1" x2="37.8" y2="39.1334" gradientUnits="userSpaceOnUse">
<stop offset="0.259336" stop-color="#4bff33"/>
<stop offset="1" stop-color="#15B300"/>
</linearGradient>
<linearGradient id="paint4_linear" x1="3.26667" y1="1" x2="37.8" y2="39.1334" gradientUnits="userSpaceOnUse">
<stop offset="0.259336" stop-color="#4bff33"/>
<stop offset="1" stop-color="#15B300"/>
</linearGradient>
</defs>
</svg>
